# xmcd
#
# Track frame offsets: 
#        150
#        10622
#        23772
#        35180
#        44190
#        54652
#        66055
#        79252
#        90745
#        107970
#
# Disc length: 1659 seconds
#
# Revision: 0
# Processed by: cddbd v1.5.1PL0 Copyright (c) Steve Scherf et al.
# Submitted via: ExactAudioCopy v0.95a5
#
DISCID=8506790a
DTITLE=Faron Young and Ray Price - Back to Back
DYEAR=2001
DGENRE=Country
TTITLE0=Hello Walls - Faron Young
TTITLE1=It's Four in the Morning - Faron Young
TTITLE2=Country Girl  - Faron Young
TTITLE3=Alone With You - Faron Young
TTITLE4=Live Fast, Love Hard, Die Young - Faron Young
TTITLE5=Crazy Arms - Ray Price
TTITLE6=City Lights - Ray Price
TTITLE7=My Shoes Keep Walking Back To You - Ray  Price
TTITLE8=For the Good Times - Ray Price
TTITLE9=You
EXTD=
EXTT0=
EXTT1=
EXTT2=
EXTT3=
EXTT4=
EXTT5=
EXTT6=
EXTT7=
EXTT8=
EXTT9=
PLAYORDER=
